<?xml version="1.0" encoding="UTF-8" standalone="no"?>
<!DOCTYPE svg PUBLIC "-//W3C//DTD SVG 1.1//EN" "http://www.w3.org/Graphics/SVG/1.1/DTD/svg11.dtd">
<svg width="100%" height="100%" viewBox="0 0 1800 2700" version="1.1" xmlns="http://www.w3.org/2000/svg" xmlns:xlink="http://www.w3.org/1999/xlink" xml:space="preserve" style="fill-rule:evenodd;clip-rule:evenodd;stroke-linejoin:round;stroke-miterlimit:1.41421;">
    <g id="Wellness">
        <g>
            <text x="32.669px" y="216.172px" style="font-family:'Helvetica-Bold', 'Helvetica';font-weight:700;font-size:222.909px;">Mental Health</text>
            <text x="32.669px" y="408.44px" style="font-family:'Helvetica-Bold', 'Helvetica';font-weight:700;font-size:222.909px;">In</text>
            <text x="292.793px" y="408.44px" style="font-family:'Helvetica-Bold', 'Helvetica';font-weight:700;font-size:222.909px;">T</text>
            <text x="412.504px" y="408.44px" style="font-family:'Helvetica-Bold', 'Helvetica';font-weight:700;font-size:222.909px;">ech</text>
            <text x="32.669px" y="498.774px" style="font-family:'Helvetica';font-size:77.293px;fill:rgb(221,49,49);">Guidelines for Mental</text>
            <text x="784.506px" y="498.774px" style="font-family:'Helvetica';font-size:77.293px;fill:rgb(221,49,49);">W</text>
            <text x="856.009px" y="498.774px" style="font-family:'Helvetica';font-size:77.293px;fill:rgb(221,49,49);">ellness in the</text>
            <text x="1328.64px" y="498.774px" style="font-family:'Helvetica';font-size:77.293px;fill:rgb(221,49,49);">W</text>
            <text x="1400.19px" y="498.774px" style="font-family:'Helvetica';font-size:77.293px;fill:rgb(221,49,49);">orkplace</text>
            <text x="41.559px" y="569.118px" style="font-family:'Helvetica';font-size:53.972px;">Created by OSMI</text>
        </g>
        <path d="M1659.44,99.23C1659.44,99.23 1650.23,104.156 1648.9,104.967C1648.9,104.967 1647.33,105.662 1647.97,106.821C1647.97,106.821 1650.23,110.82 1653.76,110.414C1653.76,110.414 1656.49,110.588 1658.57,106.01C1658.57,106.01 1658.17,110.123 1659.15,110.704L1666.8,104.156C1666.8,104.156 1662.92,97.607 1659.44,99.23M1645.72,108.419L1645.69,108.509C1645.68,108.433 1645.67,108.358 1645.67,108.282C1645.53,108.23 1645.39,108.174 1645.25,108.139C1645.22,108.132 1645.18,108.122 1645.15,108.115C1644.96,108.073 1644.77,108.05 1644.6,108.046C1644.58,108.046 1644.56,108.041 1644.55,108.041C1644.53,108.04 1644.51,108.045 1644.49,108.047C1644.32,108.048 1644.16,108.061 1644.01,108.092C1644,108.092 1644,108.092 1644,108.092C1643.84,108.126 1643.68,108.177 1643.53,108.237C1643.5,108.251 1643.47,108.264 1643.43,108.281C1643.29,108.345 1643.15,108.419 1643.01,108.509C1642.99,108.521 1642.98,108.535 1642.96,108.549C1642.84,108.633 1642.72,108.728 1642.6,108.831C1642.58,108.855 1642.55,108.876 1642.52,108.901C1642.4,109.017 1642.28,109.145 1642.17,109.279C1642.14,109.308 1642.12,109.337 1642.1,109.365C1642,109.493 1641.89,109.629 1641.8,109.772C1641.78,109.794 1641.77,109.812 1641.76,109.835C1641.65,109.995 1641.55,110.163 1641.46,110.337C1641.43,110.377 1641.41,110.416 1641.39,110.456C1641.3,110.635 1641.21,110.82 1641.12,111.011C1641.01,111.264 1640.91,111.516 1640.83,111.766C1640.82,111.796 1640.82,111.823 1640.81,111.853C1640.26,113.536 1640.4,115.095 1641.8,116.012L1639.64,115.059C1639.43,114.966 1639.23,114.9 1639.02,114.849C1638.99,114.843 1638.96,114.831 1638.92,114.824C1638.73,114.782 1638.55,114.761 1638.37,114.755C1638.36,114.753 1638.34,114.749 1638.32,114.749C1638.3,114.749 1638.28,114.755 1638.26,114.755C1638.1,114.758 1637.93,114.77 1637.78,114.801C1637.78,114.802 1637.77,114.801 1637.77,114.802C1637.61,114.836 1637.46,114.886 1637.31,114.946C1637.27,114.96 1637.24,114.974 1637.21,114.989C1637.06,115.054 1636.92,115.128 1636.79,115.218C1636.77,115.23 1636.75,115.245 1636.73,115.259C1636.61,115.343 1636.49,115.438 1636.38,115.541C1636.35,115.563 1636.32,115.586 1636.3,115.611C1636.17,115.727 1636.06,115.853 1635.94,115.988C1635.92,116.017 1635.89,116.048 1635.87,116.076C1635.77,116.203 1635.67,116.336 1635.57,116.478C1635.56,116.5 1635.54,116.522 1635.53,116.545C1635.42,116.704 1635.33,116.872 1635.23,117.043C1635.21,117.086 1635.19,117.126 1635.17,117.167C1635.07,117.347 1634.98,117.53 1634.9,117.721C1633.93,119.919 1633.92,122.051 1636.13,123.024L1638.01,123.856C1637.91,123.829 1637.81,123.829 1637.71,123.813C1637.69,123.809 1637.68,123.807 1637.66,123.805C1636.96,123.705 1636.34,123.86 1635.79,124.211C1635.76,124.229 1635.73,124.246 1635.7,124.266C1635.59,124.345 1635.47,124.434 1635.36,124.531C1635.31,124.574 1635.26,124.62 1635.21,124.667C1635.12,124.757 1635.03,124.852 1634.94,124.951C1634.88,125.023 1634.82,125.102 1634.76,125.18C1634.69,125.273 1634.62,125.364 1634.55,125.463C1634.47,125.574 1634.4,125.693 1634.33,125.813C1634.28,125.895 1634.23,125.972 1634.19,126.054C1634.07,126.268 1633.96,126.489 1633.86,126.721C1632.88,128.919 1632.88,131.052 1635.09,132.022L1636.82,132.791C1635.67,133.122 1634.78,134.226 1634.15,135.658C1633.18,137.855 1633.18,139.987 1635.38,140.959L1638.49,142.334C1638.71,142.433 1638.93,142.501 1639.14,142.553C1639.17,142.561 1639.2,142.569 1639.23,142.578C1639.43,142.618 1639.63,142.642 1639.82,142.647C1639.83,142.647 1639.85,142.654 1639.87,142.654C1639.89,142.654 1639.91,142.649 1639.93,142.649C1640.1,142.647 1640.27,142.636 1640.43,142.606C1640.44,142.603 1640.46,142.598 1640.47,142.595C1640.62,142.564 1640.77,142.521 1640.91,142.465C1640.95,142.455 1640.98,142.442 1641.01,142.428C1641.16,142.365 1641.31,142.292 1641.45,142.208C1641.48,142.192 1641.5,142.175 1641.52,142.158C1641.65,142.077 1641.77,141.99 1641.89,141.89C1641.91,141.869 1641.94,141.849 1641.97,141.828C1642.09,141.714 1642.22,141.592 1642.34,141.459C1642.36,141.43 1642.39,141.399 1642.41,141.37C1642.52,141.245 1642.62,141.115 1642.73,140.974C1642.74,140.954 1642.76,140.935 1642.77,140.914C1642.88,140.758 1642.98,140.594 1643.08,140.422C1643.1,140.383 1643.12,140.342 1643.14,140.301C1643.24,140.124 1643.33,139.942 1643.41,139.752C1643.5,139.568 1643.57,139.386 1643.63,139.206C1643.67,139.09 1643.7,138.975 1643.74,138.86C1643.76,138.793 1643.78,138.727 1643.8,138.661C1643.82,138.568 1643.84,138.478 1643.85,138.387C1643.87,138.299 1643.89,138.211 1643.91,138.124C1643.92,138.054 1643.92,137.987 1643.93,137.916C1643.94,137.81 1643.95,137.702 1643.96,137.6C1643.96,137.545 1643.96,137.491 1643.96,137.438C1643.96,137.322 1643.96,137.205 1643.95,137.092C1643.95,137.049 1643.94,137.009 1643.93,136.969C1643.92,136.846 1643.91,136.724 1643.88,136.604C1643.88,136.572 1643.86,136.541 1643.86,136.51C1643.83,136.385 1643.79,136.262 1643.75,136.144C1643.74,136.113 1643.72,136.084 1643.71,136.054C1643.66,135.946 1643.62,135.836 1643.56,135.734C1644.68,136.081 1645.66,135.8 1646.48,135.136C1646.52,135.099 1646.56,135.067 1646.61,135.028C1646.71,134.941 1646.8,134.846 1646.9,134.743C1646.96,134.673 1647.03,134.597 1647.09,134.52C1647.17,134.432 1647.24,134.343 1647.31,134.248C1647.39,134.131 1647.47,134.009 1647.55,133.885C1647.6,133.808 1647.65,133.737 1647.69,133.657C1647.82,133.442 1647.93,133.219 1648.04,132.984C1648.15,132.72 1648.25,132.458 1648.33,132.197C1648.36,132.115 1648.37,132.036 1648.39,131.957C1648.44,131.778 1648.49,131.601 1648.52,131.426C1648.54,131.301 1648.54,131.182 1648.55,131.059C1648.57,130.932 1648.59,130.804 1648.59,130.682C1648.59,130.536 1648.57,130.397 1648.56,130.259C1648.55,130.164 1648.55,130.066 1648.53,129.976C1648.51,129.823 1648.46,129.685 1648.41,129.544C1648.39,129.469 1648.38,129.39 1648.35,129.318C1648.29,129.176 1648.21,129.045 1648.13,128.915C1648.09,128.852 1648.06,128.784 1648.02,128.721C1647.93,128.599 1647.82,128.487 1647.7,128.374C1647.65,128.316 1647.6,128.255 1647.54,128.199C1647.42,128.097 1647.28,128.011 1647.14,127.922C1647.07,127.875 1647.01,127.82 1646.93,127.776C1647.09,127.83 1647.24,127.85 1647.39,127.881C1647.41,127.885 1647.43,127.892 1647.45,127.896C1647.62,127.928 1647.79,127.943 1647.95,127.947C1647.96,127.947 1647.98,127.952 1647.99,127.952C1648.01,127.952 1648.03,127.946 1648.05,127.946C1648.22,127.946 1648.39,127.933 1648.55,127.904C1648.56,127.902 1648.57,127.897 1648.58,127.894C1649.07,127.799 1649.51,127.578 1649.92,127.262C1649.98,127.213 1650.04,127.167 1650.1,127.113C1650.19,127.034 1650.28,126.949 1650.36,126.861C1650.44,126.779 1650.52,126.695 1650.59,126.605C1650.66,126.523 1650.73,126.439 1650.79,126.349C1650.88,126.231 1650.96,126.104 1651.04,125.977C1651.09,125.9 1651.14,125.829 1651.18,125.75C1651.31,125.534 1651.42,125.307 1651.53,125.069C1652.5,122.869 1652.33,120.659 1650.13,119.688L1648.53,118.982C1648.64,119.01 1648.74,119.014 1648.85,119.03C1648.87,119.032 1648.88,119.034 1648.89,119.036C1649.61,119.138 1650.26,118.994 1650.83,118.654C1650.87,118.635 1650.9,118.617 1650.93,118.596C1651.05,118.521 1651.16,118.439 1651.27,118.35C1651.33,118.301 1651.39,118.254 1651.45,118.203C1651.54,118.118 1651.63,118.033 1651.72,117.941C1651.79,117.863 1651.86,117.782 1651.93,117.696C1652,117.613 1652.07,117.531 1652.13,117.44C1652.22,117.323 1652.29,117.197 1652.37,117.071C1652.42,116.998 1652.47,116.93 1652.51,116.854C1652.63,116.642 1652.74,116.422 1652.85,116.19C1653.33,115.101 1653.52,114.011 1653.33,113.069C1647.32,114.175 1645.72,108.419 1645.72,108.419M1684.66,119.272C1684.66,119.273 1684.66,119.274 1684.67,119.276C1684.67,119.277 1684.67,119.278 1684.67,119.278C1684.66,119.276 1684.66,119.273 1684.66,119.272M1662.05,181.008C1653.31,181.007 1645.13,178.552 1638.17,174.297L1663.54,150.159L1665.16,150.23L1669.28,150.332C1669.31,150.333 1669.35,150.333 1669.39,150.333C1670.27,150.333 1671.1,150.071 1671.8,149.619C1671.95,149.529 1672.09,149.425 1672.23,149.315C1672.34,149.236 1672.44,149.152 1672.53,149.061L1683.81,138.327L1688.62,133.752C1690.36,132.094 1689.64,130.09 1687.98,128.348C1687.65,128.005 1687.32,127.703 1686.97,127.444L1686.97,127.444L1686.97,127.444C1686.44,127.045 1685.88,126.762 1685.33,126.631C1685.31,126.626 1685.28,126.622 1685.26,126.615C1685.24,126.612 1685.22,126.607 1685.2,126.603C1685.05,126.573 1684.89,126.555 1684.74,126.55C1684.74,126.55 1684.73,126.55 1684.73,126.55C1684.73,126.55 1684.73,126.55 1684.73,126.55C1684.71,126.55 1684.69,126.545 1684.67,126.545C1684.53,126.545 1684.39,126.556 1684.26,126.578L1685.77,125.135C1687.51,123.477 1686.79,121.47 1685.13,119.729C1684.99,119.573 1684.83,119.426 1684.68,119.285C1684.68,119.283 1684.67,119.282 1684.67,119.28C1684.67,119.277 1684.67,119.275 1684.66,119.272L1684.66,119.273C1684.65,119.257 1684.63,119.24 1684.61,119.224C1684.47,119.101 1684.33,118.986 1684.19,118.878C1684.19,118.877 1684.19,118.877 1684.19,118.876C1684.18,118.87 1684.17,118.864 1684.16,118.856C1684.16,118.857 1684.16,118.858 1684.17,118.859C1684.14,118.841 1684.12,118.824 1684.1,118.805C1684.1,118.808 1684.1,118.81 1684.1,118.812C1684.09,118.803 1684.08,118.795 1684.07,118.786L1684.07,118.788C1684.06,118.778 1684.04,118.767 1684.03,118.757C1684.03,118.755 1684.03,118.754 1684.03,118.752C1683.41,118.312 1682.78,118.024 1682.14,117.95C1682.12,117.947 1682.1,117.943 1682.07,117.941C1681.99,117.931 1681.91,117.925 1681.82,117.925C1681.48,117.925 1681.13,117.993 1680.79,118.138L1681.85,117.124C1683.59,115.465 1682.87,113.459 1681.22,111.718C1681.12,111.615 1681.02,111.517 1680.92,111.422C1680.85,111.361 1680.79,111.301 1680.73,111.242L1680.72,111.24C1680.72,111.24 1680.72,111.239 1680.72,111.239C1680.67,111.196 1680.62,111.154 1680.58,111.112C1680.57,111.11 1680.57,111.109 1680.57,111.106C1680.57,111.103 1680.56,111.1 1680.56,111.097C1680.41,110.969 1680.26,110.848 1680.1,110.739C1680.1,110.737 1680.1,110.735 1680.1,110.733C1680.09,110.73 1680.09,110.727 1680.08,110.724C1679.49,110.298 1678.87,110.02 1678.25,109.943L1678.24,109.943C1678.24,109.942 1678.23,109.942 1678.22,109.942L1678.23,109.942C1678.18,109.937 1678.14,109.935 1678.1,109.932L1678.1,109.932C1678.14,109.936 1678.18,109.936 1678.22,109.942C1678.18,109.938 1678.15,109.936 1678.11,109.932C1678.04,109.928 1677.98,109.917 1677.91,109.917C1677.72,109.917 1677.54,109.944 1677.36,109.983C1677.11,110.036 1676.87,110.123 1676.63,110.251C1676.53,110.306 1676.43,110.361 1676.33,110.43C1678.05,108.774 1677.34,106.775 1675.68,105.039C1675.56,104.913 1675.44,104.793 1675.32,104.678C1675.28,104.646 1675.25,104.616 1675.22,104.585C1675.14,104.517 1675.07,104.452 1674.99,104.389C1674.98,104.378 1674.96,104.363 1674.95,104.351C1674.91,104.317 1674.87,104.285 1674.83,104.252C1674.81,104.238 1674.79,104.226 1674.77,104.209C1674.74,104.183 1674.7,104.159 1674.67,104.133C1674.83,104.25 1674.98,104.379 1675.13,104.513C1675.16,104.539 1675.19,104.565 1675.22,104.591C1675.25,104.615 1675.27,104.643 1675.3,104.667C1674.44,103.91 1673.7,103.755 1672.71,103.755C1672.01,103.755 1671.32,104.028 1670.65,104.656L1657.17,117.116C1654.87,119.423 1653.99,119.838 1654.45,120.234C1655.56,121.991 1655.66,124.365 1654.59,126.862C1653.92,128.42 1652.98,129.619 1651.86,130.394C1652.07,131.739 1651.85,133.249 1651.18,134.813C1650.31,136.854 1648.96,138.282 1647.35,138.942C1647.26,139.811 1647.03,140.718 1646.63,141.633C1645.39,144.535 1643.21,146.2 1640.65,146.2C1640.33,146.2 1640.01,146.164 1639.69,146.111C1639.66,146.105 1639.63,146.102 1639.6,146.095C1639.28,146.035 1638.95,145.948 1638.63,145.831C1638.62,145.83 1638.62,145.83 1638.62,145.83L1623.59,160.136C1618.88,152.932 1616.15,144.333 1616.15,135.105C1616.15,109.796 1636.74,89.205 1662.05,89.205C1687.36,89.205 1707.95,109.796 1707.95,135.105C1707.95,142.35 1706.26,149.207 1703.26,155.306L1687.67,141.42L1676.23,152.303C1675.89,152.634 1675.5,152.932 1675.07,153.195C1673.92,153.93 1672.6,154.318 1671.24,154.318L1671.06,154.317L1669.82,154.286L1689.53,171.848C1681.86,177.598 1672.35,181.008 1662.05,181.008M1707.88,159.426C1711.75,152.167 1713.94,143.889 1713.94,135.106C1713.94,106.49 1690.66,83.211 1662.05,83.211C1633.43,83.211 1610.15,106.49 1610.15,135.106C1610.15,146.43 1613.8,156.916 1619.98,165.458C1620.65,166.382 1621.34,167.285 1622.07,168.162L1627.03,173.376C1629.14,175.301 1631.4,177.054 1633.79,178.617C1634.01,178.759 1634.23,178.899 1634.45,179.039C1634.45,179.038 1634.46,179.038 1634.46,179.038C1634.51,179.024 1634.55,179.012 1634.6,178.999C1634.66,178.974 1634.73,178.944 1634.8,178.914C1634.86,178.885 1634.91,178.855 1634.97,178.825C1634.99,178.813 1635.01,178.802 1635.04,178.791C1635.09,178.762 1635.14,178.735 1635.18,178.703C1635.16,178.718 1635.14,178.735 1635.12,178.75C1635.09,178.766 1635.06,178.778 1635.04,178.791C1634.96,178.835 1634.88,178.877 1634.8,178.914C1634.75,178.938 1634.7,178.963 1634.65,178.982C1634.63,178.989 1634.61,178.992 1634.6,178.999C1634.55,179.015 1634.51,179.028 1634.46,179.042C1642.46,184.082 1651.91,187.002 1662.05,187.003C1674.13,187.003 1685.26,182.854 1694.08,175.906C1699.75,171.448 1704.47,165.834 1707.88,159.426M1675.49,192.818L1676.12,195.094L1678.35,194.472L1679.2,197.532L1677.11,198.118L1677.74,200.394L1679.84,199.808L1680.64,202.667L1678.45,203.278L1679.09,205.555L1683.83,204.229L1680.26,191.484L1675.49,192.818ZM1660.14,194.333L1657.49,194.194L1656.93,205.047L1655.32,204.964L1655.2,207.323L1661.05,207.628L1661.17,205.269L1659.57,205.186L1660.14,194.333ZM1673.11,204.374C1672.79,204.426 1672.61,204.301 1672.56,203.983L1672.12,201.295C1672.07,200.978 1672.2,200.805 1672.51,200.752L1673.15,200.649L1673.74,204.27L1673.11,204.374ZM1671.98,193.483L1672.79,198.428L1672.13,198.535C1671.82,198.587 1671.64,198.462 1671.59,198.145L1670.86,193.665L1668.25,194.092L1668.98,198.59C1669.13,199.543 1669.55,199.991 1670.39,200.083C1669.73,200.461 1669.41,201.088 1669.59,202.207L1670,204.727C1670.27,206.35 1671.2,207.022 1672.82,206.757L1676.72,206.12L1674.59,193.056L1671.98,193.483ZM1620.42,177.386L1618.84,179.14L1620.55,180.684L1618.42,183.043L1616.81,181.586L1615.22,183.34L1616.84,184.797L1614.85,187L1613.16,185.48L1611.58,187.235L1615.23,190.527L1624.09,180.703L1620.42,177.386ZM1610.08,180.946L1614.02,176.675L1614.81,177.568L1610.08,180.946ZM1618.28,175.102L1616.7,176.232L1615.61,174.981L1616.92,173.553L1615.18,171.58L1606.39,181.618L1608.77,184.331L1619.86,176.905L1618.28,175.102ZM1638.33,189.423L1635.4,195.984L1636.87,188.756L1634.53,187.688L1629.03,199.73L1631.12,200.68L1633.8,194.67L1632.46,201.293L1634.92,202.415L1640.41,190.373L1638.33,189.423ZM1641.62,201.308L1642.76,195.605L1643.89,195.957L1641.62,201.308ZM1645.56,192.042L1644.81,193.827L1643.22,193.334L1643.6,191.431L1641.09,190.652L1638.82,203.806L1642.27,204.877L1647.86,192.753L1645.56,192.042ZM1623.32,186.914L1621.65,185.68L1620.25,187.582L1621.92,188.818L1620.08,191.313L1618.33,190.024L1616.93,191.927L1620.81,194.788L1628.66,184.131L1626.53,182.56L1623.32,186.914ZM1651.55,199.05L1650.24,198.824L1651.19,193.366L1648.58,192.914L1646.32,205.953L1648.93,206.406L1649.84,201.152L1651.14,201.378L1650.23,206.631L1652.84,207.084L1655.1,194.044L1652.49,193.592L1651.55,199.05ZM1711.55,102.89L1713.48,101.518L1712.37,99.964L1721.22,93.657L1719.68,91.501L1708.91,99.18L1711.55,102.89ZM1719.15,119.903L1721.41,119.196L1720.72,116.995L1723.75,116.045L1724.4,118.12L1726.65,117.413L1726,115.338L1728.84,114.45L1729.51,116.614L1731.77,115.907L1730.3,111.218L1717.67,115.177L1719.15,119.903ZM1731.59,127.063L1729.49,127.211C1728.55,127.278 1728.02,127.562 1727.49,128.414L1725.97,130.795C1725.77,131.131 1725.57,131.278 1725.16,131.308L1723.57,131.419C1723.25,131.442 1723.09,131.302 1723.07,130.981L1723.05,130.736C1723.03,130.416 1723.17,130.254 1723.49,130.231L1726.05,130.051L1725.87,127.467L1723.06,127.665C1721.42,127.781 1720.67,128.649 1720.78,130.29L1720.89,131.761C1721,133.402 1721.87,134.155 1723.51,134.04L1725.94,133.869C1726.93,133.799 1727.42,133.518 1727.94,132.666L1729.46,130.284C1729.67,129.947 1729.87,129.801 1730.28,129.772L1731.53,129.683C1731.85,129.661 1732.01,129.802 1732.03,130.122L1732.05,130.33C1732.07,130.65 1731.93,130.812 1731.61,130.834L1729.44,130.988L1729.62,133.572L1732.03,133.402C1733.67,133.285 1734.43,132.418 1734.31,130.775L1734.21,129.343C1734.1,127.702 1733.23,126.948 1731.59,127.063M1730.09,118.663L1728.03,119.063C1727.11,119.243 1726.61,119.59 1726.19,120.5L1724.97,123.049C1724.81,123.408 1724.63,123.577 1724.23,123.656L1722.67,123.96C1722.35,124.021 1722.17,123.902 1722.11,123.586L1722.07,123.345C1722,123.029 1722.12,122.852 1722.44,122.79L1724.96,122.3L1724.47,119.755L1721.7,120.293C1720.09,120.607 1719.44,121.561 1719.76,123.177L1720.04,124.624C1720.36,126.239 1721.31,126.881 1722.92,126.568L1725.32,126.103C1726.28,125.915 1726.74,125.576 1727.16,124.666L1728.38,122.118C1728.54,121.759 1728.72,121.589 1729.12,121.509L1730.35,121.272C1730.67,121.21 1730.84,121.329 1730.9,121.645L1730.94,121.85C1731.01,122.165 1730.88,122.343 1730.57,122.403L1728.43,122.818L1728.93,125.362L1731.31,124.9C1732.92,124.586 1733.56,123.632 1733.25,122.017L1732.98,120.606C1732.66,118.991 1731.71,118.349 1730.09,118.663M1715.67,110.418L1722.22,107.457L1716.33,111.888L1717.37,114.24L1729.47,108.879L1728.54,106.787L1722.55,109.504L1727.95,105.438L1726.85,102.966L1714.75,108.326L1715.67,110.418ZM1604.2,174.889L1603.84,174.355C1603.66,174.089 1603.7,173.88 1603.97,173.699L1606.23,172.177C1606.49,171.997 1606.7,172.038 1606.88,172.304L1607.24,172.837L1604.2,174.889ZM1613.26,168.775L1609.11,171.578L1608.74,171.029C1608.56,170.764 1608.6,170.554 1608.86,170.374L1612.62,167.835L1611.14,165.642L1607.37,168.191C1606.57,168.73 1606.34,169.297 1606.6,170.099C1605.98,169.651 1605.28,169.624 1604.34,170.258L1602.22,171.686C1600.86,172.606 1600.64,173.735 1601.56,175.097L1603.77,178.371L1614.74,170.969L1613.26,168.775ZM1714.32,107.595L1716.37,106.406L1715.41,104.755L1724.8,99.288L1723.47,97L1712.03,103.655L1714.32,107.595ZM1688.18,190.909C1687.56,189.385 1686.5,188.937 1684.98,189.556L1683.4,190.196C1681.88,190.815 1681.43,191.874 1682.05,193.398L1683.97,198.145L1687.14,196.859L1686.31,194.809L1685.54,195.121L1684.55,192.687C1684.43,192.389 1684.52,192.191 1684.81,192.071L1685.22,191.907C1685.51,191.786 1685.71,191.87 1685.83,192.167L1688.83,199.561C1688.95,199.858 1688.87,200.056 1688.57,200.176L1688.22,200.319C1687.92,200.439 1687.73,200.356 1687.61,200.059L1686.76,197.974L1684.34,198.956L1685.3,201.303C1685.91,202.826 1686.97,203.274 1688.5,202.656L1690.04,202.03C1691.56,201.412 1692.01,200.352 1691.39,198.828L1688.18,190.909ZM1691.77,186.292L1695.33,192.532L1690.36,187.077L1688.12,188.335L1694.59,199.88L1696.59,198.762L1693.32,193.049L1697.88,198.04L1700.24,196.717L1693.76,185.172L1691.77,186.292ZM1703.94,191.499L1703.63,191.724C1703.38,191.916 1703.16,191.884 1702.97,191.626L1698.23,185.213C1698.03,184.956 1698.06,184.744 1698.32,184.553L1698.63,184.328C1698.88,184.136 1699.1,184.168 1699.29,184.426L1704.04,190.838C1704.23,191.096 1704.2,191.308 1703.94,191.499M1701.25,182.624C1700.27,181.301 1699.13,181.132 1697.81,182.111L1696.44,183.123C1695.12,184.103 1694.95,185.24 1695.93,186.561L1701.02,193.428C1701.99,194.751 1703.13,194.92 1704.45,193.941L1705.82,192.929C1707.14,191.95 1707.31,190.812 1706.33,189.49L1701.25,182.624ZM1716.8,178.75L1708.4,171.838L1706.72,173.882L1715.11,180.793L1714.09,182.034L1715.92,183.536L1719.64,179.011L1717.82,177.509L1716.8,178.75ZM1722.49,170.548L1720.73,169.41C1719.93,168.899 1719.34,168.807 1718.4,169.172L1715.76,170.167C1715.39,170.314 1715.15,170.312 1714.8,170.086L1713.46,169.225C1713.19,169.051 1713.15,168.842 1713.32,168.572L1713.45,168.365C1713.63,168.095 1713.84,168.05 1714.11,168.225L1716.27,169.619L1717.67,167.442L1715.31,165.914C1713.92,165.022 1712.8,165.264 1711.91,166.647L1711.11,167.886C1710.22,169.27 1710.46,170.393 1711.84,171.285L1713.89,172.608C1714.72,173.141 1715.28,173.21 1716.21,172.846L1718.86,171.851C1719.22,171.704 1719.47,171.706 1719.82,171.931L1720.87,172.608C1721.14,172.782 1721.18,172.991 1721.01,173.262L1720.9,173.436C1720.72,173.707 1720.51,173.752 1720.24,173.577L1718.41,172.399L1717.01,174.575L1719.04,175.887C1720.43,176.781 1721.55,176.537 1722.44,175.156L1723.22,173.948C1724.12,172.564 1723.87,171.441 1722.49,170.548M1707.82,183.229L1708.28,182.784L1710.82,185.432L1710.36,185.877C1710.12,186.099 1709.91,186.094 1709.69,185.863L1707.81,183.897C1707.58,183.664 1707.59,183.451 1707.82,183.229M1703.26,177.543L1706.73,181.159L1706.25,181.618C1706.02,181.841 1705.8,181.836 1705.58,181.603L1702.44,178.328L1700.53,180.159L1703.68,183.448C1704.35,184.145 1704.95,184.277 1705.69,183.879C1705.36,184.567 1705.45,185.264 1706.24,186.083L1708,187.926C1709.14,189.114 1710.29,189.138 1711.48,188L1714.33,185.266L1705.17,175.712L1703.26,177.543ZM1725.21,148.4C1723.27,148.4 1721.7,149.97 1721.7,151.907C1721.7,153.845 1723.27,155.416 1725.21,155.416C1727.15,155.416 1728.72,153.845 1728.72,151.907C1728.72,149.97 1727.15,148.4 1725.21,148.4M1667.29,67.452L1667.28,76.279L1669.76,76.563L1671.74,68.058L1670.76,76.678L1673.35,76.975L1674.86,63.829L1671.04,63.392L1669.34,71.245L1669.48,63.213L1665.69,62.779L1664.18,75.923L1666.29,76.165L1667.29,67.452ZM1679.04,78.51L1679.62,76.22L1677.39,75.651L1678.17,72.573L1680.28,73.11L1680.86,70.819L1678.75,70.282L1679.49,67.405L1681.68,67.965L1682.27,65.675L1677.5,64.462L1674.24,77.288L1679.04,78.51ZM1610.36,87.584L1610.62,87.306C1610.83,87.07 1611.05,87.063 1611.28,87.281L1617.13,92.707C1617.37,92.926 1617.37,93.14 1617.15,93.376L1616.9,93.653C1616.68,93.888 1616.46,93.896 1616.23,93.678L1610.38,88.252C1610.15,88.032 1610.14,87.818 1610.36,87.584M1608.37,89.998L1614.63,95.81C1615.84,96.929 1616.99,96.885 1618.11,95.681L1619.27,94.434C1620.38,93.228 1620.34,92.08 1619.14,90.961L1612.88,85.149C1611.67,84.03 1610.52,84.073 1609.4,85.279L1608.24,86.526C1607.13,87.73 1607.17,88.88 1608.37,89.998M1682.07,79.565L1684.57,72.831L1683.57,80.137L1685.97,81.051L1690.68,68.682L1688.54,67.868L1686.25,74.037L1687.16,67.345L1684.63,66.384L1679.93,78.752L1682.07,79.565ZM1700.29,77.638L1697.58,82.781L1696.59,82.118L1700.29,77.638ZM1693.87,85.395L1695.1,83.898L1696.48,84.824L1695.58,86.542L1697.76,88.004L1703.68,76.041L1700.68,74.031L1691.87,84.058L1693.87,85.395ZM1603.26,96.871L1604.96,98.098C1605.73,98.65 1606.32,98.772 1607.27,98.454L1609.96,97.597C1610.33,97.468 1610.58,97.483 1610.91,97.726L1612.2,98.654C1612.46,98.842 1612.5,99.053 1612.31,99.314L1612.17,99.514C1611.98,99.774 1611.77,99.809 1611.51,99.621L1609.42,98.118L1607.91,100.22L1610.19,101.867C1611.53,102.828 1612.66,102.643 1613.62,101.309L1614.49,100.111C1615.45,98.777 1615.26,97.641 1613.93,96.68L1611.95,95.254C1611.15,94.679 1610.59,94.58 1609.64,94.898L1606.95,95.756C1606.58,95.884 1606.33,95.87 1605.99,95.626L1604.98,94.897C1604.72,94.709 1604.68,94.498 1604.87,94.237L1605,94.068C1605.18,93.807 1605.39,93.774 1605.65,93.961L1607.42,95.231L1608.93,93.13L1606.97,91.715C1605.63,90.754 1604.5,90.938 1603.54,92.273L1602.7,93.439C1601.74,94.775 1601.92,95.91 1603.26,96.871M1688.13,82.14L1690.47,83.366L1695.51,73.733L1696.93,74.477L1698.02,72.383L1692.83,69.67L1691.74,71.763L1693.16,72.508L1688.13,82.14ZM1626.11,79.304L1625.57,79.652L1623.58,76.57L1624.12,76.22C1624.39,76.047 1624.6,76.091 1624.77,76.362L1626.25,78.65C1626.42,78.92 1626.38,79.13 1626.11,79.304M1629.5,85.753L1626.79,81.543L1627.34,81.184C1627.61,81.011 1627.82,81.056 1628,81.326L1630.46,85.139L1632.68,83.704L1630.21,79.876C1629.69,79.065 1629.12,78.821 1628.32,79.07C1628.78,78.457 1628.82,77.756 1628.2,76.802L1626.82,74.657C1625.93,73.274 1624.81,73.031 1623.42,73.923L1620.1,76.066L1627.28,87.189L1629.5,85.753ZM1642.79,79.224L1638.22,66.802L1635.74,67.716L1640.31,80.138L1642.79,79.224ZM1650.6,74.677C1650.82,76.307 1651.73,77.007 1653.36,76.793L1655.05,76.57C1656.68,76.356 1657.38,75.445 1657.16,73.814L1656.5,68.735L1653.1,69.181L1653.39,71.372L1654.22,71.265L1654.56,73.87C1654.6,74.188 1654.47,74.357 1654.15,74.4L1653.72,74.457C1653.4,74.499 1653.23,74.369 1653.19,74.05L1652.15,66.141C1652.11,65.822 1652.24,65.653 1652.56,65.611L1652.93,65.562C1653.25,65.52 1653.42,65.65 1653.46,65.969L1653.76,68.199L1656.34,67.858L1656.01,65.348C1655.8,63.717 1654.89,63.017 1653.26,63.231L1651.61,63.448C1649.98,63.662 1649.28,64.574 1649.49,66.205L1650.6,74.677ZM1623.48,90.44L1624.71,89.409C1625.97,88.353 1626.07,87.208 1625.01,85.946L1618.03,77.599L1616,79.297L1622.8,87.428C1623.01,87.674 1622.99,87.887 1622.74,88.094L1622.53,88.275C1622.28,88.482 1622.07,88.463 1621.86,88.217L1615.05,80.086L1613.03,81.783L1620.01,90.133C1621.07,91.394 1622.21,91.495 1623.48,90.44M1645.97,78.243L1644.08,71.311L1647.52,77.834L1650.01,77.18L1646.64,64.382L1644.43,64.964L1646.16,71.313L1643,65.34L1640.39,66.027L1643.75,78.824L1645.97,78.243ZM1632.45,81.152C1633.16,82.634 1634.25,83.014 1635.73,82.303L1637.2,81.598C1638.68,80.888 1639.06,79.803 1638.35,78.32L1636.84,75.166L1634.48,76.294L1635.88,79.193C1636.01,79.484 1635.94,79.685 1635.65,79.825L1635.35,79.972C1635.06,80.111 1634.86,80.04 1634.71,79.75L1631.26,72.555C1631.12,72.266 1631.19,72.064 1631.48,71.925L1631.76,71.794C1632.05,71.655 1632.25,71.725 1632.39,72.016L1633.61,74.555L1635.96,73.426L1634.62,70.63C1633.9,69.146 1632.82,68.766 1631.34,69.478L1629.9,70.165C1628.42,70.876 1628.04,71.962 1628.75,73.444L1632.45,81.152ZM1597.01,123.383L1596.91,123.941L1592.87,123.22L1592.97,122.661C1593.03,122.345 1593.2,122.223 1593.52,122.279L1596.63,122.834C1596.94,122.891 1597.07,123.066 1597.01,123.383M1603.67,125.147L1599.14,124.339L1599.36,123.13C1599.65,121.511 1598.99,120.567 1597.37,120.279L1593.71,119.625C1592.09,119.334 1591.14,119.992 1590.86,121.611L1590.17,125.428L1603.2,127.753L1603.67,125.147ZM1708.21,98.329L1718.37,89.844L1716.67,87.813L1706.52,96.299L1708.21,98.329ZM1602.33,151.907C1602.33,149.97 1600.76,148.4 1598.82,148.4C1596.88,148.4 1595.31,149.97 1595.31,151.907C1595.31,153.845 1596.88,155.416 1598.82,155.416C1600.76,155.416 1602.33,153.845 1602.33,151.907M1592.28,132.055C1591.96,132.038 1591.82,131.879 1591.84,131.559L1591.86,131.18C1591.87,130.86 1592.03,130.718 1592.35,130.734L1600.32,131.164C1600.64,131.181 1600.78,131.341 1600.77,131.662L1600.74,132.038C1600.73,132.36 1600.57,132.503 1600.25,132.485L1592.28,132.055ZM1602.97,132.822L1603.06,131.124C1603.15,129.481 1602.39,128.626 1600.74,128.538L1592.21,128.077C1590.57,127.99 1589.71,128.757 1589.63,130.398L1589.54,132.098C1589.44,133.739 1590.21,134.595 1591.86,134.683L1600.39,135.143C1602.03,135.232 1602.88,134.464 1602.97,132.822M1607.14,112.941L1600.51,110.182L1607.77,111.462L1608.78,109.095L1596.6,103.917L1595.7,106.023L1601.78,108.545L1595.13,107.38L1594.07,109.868L1606.25,115.046L1607.14,112.941ZM1701.84,91.471L1703.36,89.663L1701.9,88.434L1708.89,80.115L1706.87,78.411L1698.35,88.539L1701.84,91.471ZM1605.98,115.923L1603.71,115.251L1603.06,117.461L1600.01,116.555L1600.63,114.471L1598.37,113.798L1597.75,115.882L1594.9,115.037L1595.55,112.862L1593.28,112.188L1591.88,116.899L1604.57,120.671L1605.98,115.923ZM1662.14,216.464C1617.43,216.464 1581.07,180.093 1581.07,135.388C1581.07,90.684 1617.43,54.314 1662.14,54.314C1706.85,54.314 1743.22,90.684 1743.22,135.388C1743.22,180.093 1706.85,216.464 1662.14,216.464M1748.35,135.388C1748.35,133.695 1748.3,132.014 1748.2,130.344L1755.4,129.074L1752.04,109.995L1744.91,111.251C1743.9,107.813 1742.69,104.463 1741.28,101.216L1747.62,97.557L1737.93,80.779L1731.62,84.419C1729.52,81.552 1727.24,78.819 1724.8,76.238L1729.53,70.603L1714.69,58.15L1710.01,63.723C1707.06,61.748 1703.99,59.953 1700.8,58.347L1703.3,51.463L1685.1,44.836L1682.62,51.643C1679.19,50.805 1675.69,50.172 1672.12,49.759L1672.12,42.444L1652.74,42.444L1652.74,49.692C1649.17,50.082 1645.66,50.69 1642.23,51.504L1639.73,44.636L1621.52,51.263L1624.01,58.087C1620.81,59.671 1617.72,61.448 1614.76,63.402L1610.04,57.775L1595.2,70.23L1599.88,75.814C1597.43,78.38 1595.13,81.096 1593,83.949L1586.64,80.276L1576.95,97.055L1583.23,100.682C1581.8,103.919 1580.57,107.261 1579.54,110.691L1572.34,109.422L1568.98,128.504L1576.12,129.762C1576,131.623 1575.93,133.498 1575.93,135.388C1575.93,137.081 1575.98,138.762 1576.08,140.431L1568.88,141.701L1572.24,160.782L1579.37,159.524C1580.38,162.962 1581.59,166.312 1583,169.558L1576.66,173.219L1586.35,189.998L1592.65,186.356C1594.76,189.223 1597.04,191.956 1599.48,194.538L1594.75,200.173L1609.6,212.626L1614.27,207.053C1617.22,209.027 1620.29,210.823 1623.48,212.429L1620.97,219.313L1639.18,225.94L1641.66,219.134C1645.09,219.972 1648.59,220.605 1652.16,221.018L1652.16,228.332L1671.54,228.332L1671.54,221.085C1675.11,220.696 1678.62,220.088 1682.05,219.273L1684.55,226.139L1702.76,219.512L1700.28,212.69C1703.47,211.106 1706.56,209.33 1709.52,207.375L1714.24,213L1729.08,200.546L1724.4,194.962C1726.85,192.396 1729.15,189.68 1731.28,186.828L1737.64,190.5L1747.33,173.72L1741.05,170.094C1742.48,166.856 1743.71,163.515 1744.74,160.084L1751.94,161.353L1755.3,142.272L1748.16,141.012C1748.28,139.153 1748.35,137.279 1748.35,135.388" style="fill:rgb(96,96,96);fill-rule:nonzero;"/>
        <path d="M643.527,1239.35C643.527,1239.35 721.605,1244.41 781.479,1113.01C781.479,1113.01 769.939,1231.06 798.084,1247.67L1017.46,1059.92C1017.46,1059.92 906.136,872.074 806.426,918.616C806.426,918.616 542.179,1059.88 504.015,1083.11C504.015,1083.11 459.13,1103.05 477.469,1136.28C477.469,1136.28 542.179,1251.04 643.527,1239.35" style="fill:rgb(221,49,49);fill-rule:nonzero;"/>
        <path d="M1181.77,2347.52L1642.97,1908.57C1692.86,1861.02 1672.18,1803.53 1624.76,1753.6C1595.28,1722.65 1562.38,1701.91 1529.77,1701.91C1525.77,1701.91 1521.81,1702.18 1517.89,1702.84L1561.37,1661.44C1611.28,1613.97 1590.62,1556.25 1543.06,1506.47C1513.55,1475.48 1480.72,1454.75 1448.11,1454.75C1438.13,1454.75 1428.23,1456.67 1418.44,1460.8L1449.01,1431.72C1498.92,1384.21 1478.22,1326.66 1430.71,1276.79C1401.36,1245.8 1368.4,1225.1 1335.91,1225.1C1320.64,1225.1 1305.46,1229.67 1290.66,1239.77C1340.1,1192.31 1319.49,1135.01 1272.08,1085.19C1242.56,1054.2 1219.4,1048.42 1186.76,1048.42C1166.77,1048.42 1146.81,1056.26 1127.84,1074.26L741.336,1431.55C675.331,1497.65 650.004,1509.55 663.219,1520.88C695.136,1571.31 697.916,1639.39 667.295,1710.94C648.098,1755.65 621.19,1790.03 588.949,1812.33C594.967,1850.81 588.722,1894.06 569.506,1939C544.35,1997.52 505.881,2038.45 459.568,2057.41C457.284,2082.27 450.352,2108.28 439.155,2134.58C403.448,2217.76 341.005,2265.52 267.648,2265.52C258.547,2265.52 249.253,2264.47 240.111,2262.91C239.275,2262.82 238.34,2262.7 237.521,2262.45C228.153,2260.76 218.783,2258.28 209.49,2254.86L209.394,2254.86L0,2454.17L0,2700.01L586.607,2700.01L925.105,2377.88L1088.31,2383.99L1091.56,2383.99C1117.03,2383.99 1140.68,2376.49 1160.63,2363.56C1168.06,2359.02 1175.24,2353.77 1181.77,2347.52" style="fill:rgb(221,49,49);fill-rule:nonzero;"/>
        <path d="M107.95,1858.96L157.787,1881C124.785,1890.48 99.266,1922.19 81.137,1963.32C53.238,2026.22 53.238,2087.41 116.349,2115.27L205.644,2154.65C211.966,2157.51 218.155,2159.41 224.229,2160.93C225.144,2161.18 225.944,2161.39 226.839,2161.66C232.57,2162.86 238.131,2163.45 243.578,2163.68C244.13,2163.68 244.682,2163.79 245.216,2163.79C245.729,2163.79 246.281,2163.71 246.852,2163.71C251.671,2163.64 256.526,2163.37 261.173,2162.44C261.573,2162.36 261.973,2162.23 262.372,2162.19C266.735,2161.32 270.904,2160.06 275.038,2158.4C275.951,2158.15 276.98,2157.74 277.969,2157.39C282.236,2155.58 286.407,2153.41 290.539,2151.07C291.223,2150.61 291.929,2150.14 292.518,2149.62C296.194,2147.32 299.642,2144.82 303.011,2141.97C303.793,2141.38 304.536,2140.78 305.201,2140.18C308.973,2136.9 312.458,2133.32 315.866,2129.55C316.629,2128.75 317.352,2127.87 318.189,2127.04C321.274,2123.53 324.169,2119.7 326.95,2115.65C327.35,2115.1 327.902,2114.6 328.263,2113.93C331.406,2109.5 334.339,2104.81 337.081,2099.88C337.633,2098.7 338.299,2097.62 339.023,2096.41C341.728,2091.23 344.337,2086.19 346.831,2080.53C349.116,2075.35 351.115,2070.12 353.001,2064.94C354.163,2061.6 355.058,2058.31 356.01,2055.11C356.562,2053.18 357.305,2051.24 357.743,2049.38C358.371,2046.63 358.828,2044.1 359.438,2041.46C359.894,2038.98 360.561,2036.43 360.941,2033.95C361.229,2031.93 361.324,2030.03 361.571,2028.01C361.876,2024.96 362.332,2021.84 362.523,2018.91C362.523,2017.38 362.427,2015.79 362.427,2014.26C362.427,2010.97 362.523,2007.52 362.256,2004.36C362.123,2003.1 361.952,2001.98 361.723,2000.78C361.38,1997.31 361,1993.81 360.314,1990.34C360.046,1989.43 359.627,1988.55 359.475,1987.66C358.638,1984.08 357.704,1980.67 356.449,1977.16C356.049,1976.33 355.63,1975.49 355.247,1974.63C353.896,1971.47 352.638,1968.38 351.002,1965.43C383.09,1975.39 411.311,1967.3 434.659,1948.31C435.858,1947.19 437.173,1946.31 438.259,1945.17C441.133,1942.68 443.953,1939.97 446.656,1937.02C448.637,1935 450.484,1932.91 452.35,1930.66C454.427,1928.09 456.521,1925.56 458.502,1922.78C460.901,1919.41 463.223,1916 465.472,1912.42C466.804,1910.21 468.157,1908.15 469.509,1905.92C472.974,1899.71 476.289,1893.26 479.298,1886.59C482.611,1878.98 485.486,1871.55 487.81,1864.01C488.514,1861.68 488.818,1859.36 489.524,1857.1C490.838,1852.03 492.285,1846.95 493.161,1841.92C493.789,1838.3 493.828,1834.87 494.188,1831.46C494.532,1827.75 495.103,1824.09 495.142,1820.53C495.179,1816.32 494.627,1812.48 494.247,1808.44C493.96,1805.76 494.036,1802.92 493.617,1800.4C492.857,1795.93 491.503,1792.01 490.152,1787.91C489.524,1785.76 489.124,1783.57 488.325,1781.47C486.571,1777.4 484.249,1773.7 481.963,1769.91C480.858,1768.05 480.134,1766.2 478.878,1764.39C476.289,1760.79 472.974,1757.63 469.889,1754.39C468.157,1752.72 466.88,1750.97 465.072,1749.38C461.74,1746.51 457.568,1744.01 453.608,1741.46C451.494,1740.07 449.951,1738.45 447.627,1737.37C452.102,1738.8 456.389,1739.43 460.749,1740.28C461.32,1740.44 461.911,1740.64 462.576,1740.7C467.527,1741.67 472.137,1742.02 476.897,1742.09C477.201,1742.09 477.64,1742.38 478.097,1742.38C478.535,1742.38 479.107,1742.09 479.621,1742.09C484.553,1742.04 489.428,1741.75 494.075,1740.87C494.418,1740.87 494.627,1740.7 494.99,1740.64C508.853,1737.86 521.649,1731.64 533.285,1722.48C535.018,1721.11 536.865,1719.77 538.636,1718.23C541.188,1715.98 543.626,1713.55 546.064,1710.94C548.253,1708.65 550.348,1706.29 552.614,1703.68C554.519,1701.28 556.576,1698.96 558.366,1696.39C560.917,1692.98 563.242,1689.3 565.583,1685.63C566.935,1683.44 568.306,1681.38 569.544,1679.12C573.181,1673 576.553,1666.41 579.542,1659.6C607.307,1596.56 602.299,1533.18 539.227,1505.38L493.447,1485.04C496.684,1485.84 499.598,1486.04 502.683,1486.45C503.178,1486.53 503.521,1486.57 503.978,1486.61C524.317,1489.52 542.979,1485.39 559.585,1475.65C560.48,1475.14 561.545,1474.63 562.44,1474.04C565.755,1471.75 568.992,1469.45 572.19,1466.97C573.943,1465.52 575.523,1464.13 577.217,1462.74C579.733,1460.31 582.399,1457.85 584.797,1455.24C586.911,1453.01 588.949,1450.65 590.93,1448.19C592.91,1445.89 594.967,1443.41 596.642,1440.86C599.138,1437.45 601.404,1433.89 603.65,1430.3C604.985,1428.22 606.392,1426.24 607.65,1424.09C611.059,1417.93 614.276,1411.65 617.268,1404.99C631.015,1373.68 636.634,1342.56 631.302,1315.54C458.768,1347.15 413.064,1182.14 413.064,1182.14L412.206,1184.71C411.826,1182.52 411.579,1180.33 411.541,1178.18C407.446,1176.71 403.314,1175.06 399.391,1174.05C398.515,1173.95 397.544,1173.59 396.649,1173.42C391.163,1172.16 385.775,1171.55 380.69,1171.43C380.253,1171.43 379.795,1171.36 379.358,1171.36C378.728,1171.3 378.176,1171.43 377.605,1171.43C372.845,1171.47 368.198,1171.89 363.779,1172.73L363.399,1172.73C358.828,1173.72 354.487,1175.13 350.144,1176.92C349.269,1177.34 348.334,1177.72 347.326,1178.14C343.27,1179.99 339.156,1182.14 335.291,1184.71C334.68,1185.05 334.263,1185.43 333.709,1185.91C330.131,1188.29 326.798,1191.03 323.559,1193.94C322.703,1194.71 321.96,1195.26 321.274,1195.98C317.695,1199.3 314.267,1202.93 310.991,1206.82C310.305,1207.62 309.772,1208.44 309.01,1209.26C306.096,1212.91 303.222,1216.87 300.498,1220.97C300.022,1221.6 299.642,1222.02 299.146,1222.78C296.251,1227.35 293.413,1232.15 290.671,1237.19C290.044,1238.38 289.433,1239.4 288.901,1240.53C286.159,1245.72 283.511,1251.04 281.054,1256.46C277.969,1263.72 275.114,1270.88 272.713,1278.08C272.37,1278.94 272.294,1279.77 271.99,1280.61C256.355,1328.94 260.259,1373.58 300.498,1399.94L238.703,1372.57C232.57,1369.87 226.704,1367.98 220.916,1366.56C219.963,1366.33 218.935,1366.02 218.02,1365.74C212.633,1364.61 207.28,1363.97 202.139,1363.83C201.72,1363.83 201.264,1363.72 200.768,1363.72C200.197,1363.68 199.567,1363.83 199.015,1363.83C194.255,1363.89 189.704,1364.35 185.266,1365.14L184.809,1365.14C180.353,1366.15 176.011,1367.6 171.65,1369.28C170.736,1369.76 169.708,1370.04 168.85,1370.5C164.586,1372.36 160.701,1374.52 156.738,1377.09C156.186,1377.45 155.635,1377.83 155.139,1378.3C151.635,1380.7 148.207,1383.45 145.009,1386.4C144.17,1387.03 143.41,1387.69 142.723,1388.42C139.182,1391.71 135.754,1395.29 132.534,1399.18C131.85,1400.01 131.183,1400.95 130.46,1401.69C127.603,1405.37 124.689,1409.25 122.004,1413.17C121.624,1413.92 121.109,1414.49 120.594,1415.23C117.737,1419.76 114.806,1424.51 112.178,1429.44C111.491,1430.71 110.94,1431.8 110.312,1433.04C107.626,1438.14 105.017,1443.36 102.56,1448.88C74.739,1511.89 74.604,1572.99 137.809,1600.94L191.855,1624.86C188.904,1624 186.143,1624 183.362,1623.59C182.791,1623.45 182.276,1623.41 181.685,1623.38C161.804,1620.46 143.962,1624.92 128.231,1635.01C127.335,1635.51 126.46,1636.02 125.621,1636.57C122.271,1638.84 119.052,1641.37 115.91,1644.25C114.5,1645.45 113.016,1646.72 111.626,1648.11C109.017,1650.68 106.351,1653.29 103.874,1656.21C102.065,1658.32 100.371,1660.55 98.6,1662.78C96.562,1665.5 94.58,1668.05 92.638,1670.93C90.468,1674.05 88.373,1677.46 86.375,1680.96C84.946,1683.31 83.498,1685.51 82.241,1687.82C78.851,1693.99 75.651,1700.35 72.797,1707.01C44.878,1769.99 44.802,1831.16 107.95,1858.96" style="fill:rgb(221,49,49);fill-rule:nonzero;"/>
        <path d="M1287.79,2440.57C1277.98,2449.97 1266.67,2458.6 1254.56,2466.07C1221.61,2487.19 1183.54,2498.36 1144.6,2498.36L1139.44,2498.29L1103.85,2497.36L1331.31,2700C1465.56,2700 1641.05,2700.02 1800,2700L1800,2292.57L1615.79,2128.47L1287.79,2440.57Z" style="fill:rgb(221,49,49);fill-rule:nonzero;"/>
        <rect x="0" y="2609.95" width="1800" height="45.027" style="fill:white;fill-rule:nonzero;"/>
        <rect x="0" y="2525.74" width="1800" height="45.027" style="fill:white;fill-rule:nonzero;"/>
        <rect x="0" y="2423.93" width="1800" height="45.027" style="fill:white;fill-rule:nonzero;"/>
        <rect x="0" y="2303.91" width="1800" height="45.027" style="fill:white;fill-rule:nonzero;"/>
        <rect x="0" y="2128.47" width="1800" height="45.027" style="fill:white;fill-rule:nonzero;"/>
        <rect x="0" y="1880.51" width="1800" height="45.027" style="fill:white;fill-rule:nonzero;"/>
    </g>
</svg>
